HIERARCHY
ROOT Hips
{
  OFFSET -32.5998 29.0326 120.673
  CHANNELS 6 Xposition Yposition Zposition Zrotation Xrotation Yrotation
  JOINT LeftUpLeg
  {
    OFFSET 8.64259 1.95398 -2.38835
    CHANNELS 3 Zrotation Xrotation Yrotation
    JOINT LeftLeg
    {
      OFFSET 43.7702 0 0
      CHANNELS 3 Zrotation Xrotation Yrotation
      JOINT LeftFoot
      {
        OFFSET 40.6238 0 0
        CHANNELS 3 Zrotation Xrotation Yrotation
        JOINT LeftToeBase
        {
          OFFSET 12.7242 0 0
          CHANNELS 3 Zrotation Xrotation Yrotation
          End Site
          {
            OFFSET 0 0 0
          }
        }
      }
    }
  }
  JOINT RightUpLeg
  {
    OFFSET -8.2249 1.95398 -2.59336
    CHANNELS 3 Zrotation Xrotation Yrotation
    JOINT RightLeg
    {
      OFFSET 43.5653 0 0
      CHANNELS 3 Zrotation Xrotation Yrotation
      JOINT RightFoot
      {
        OFFSET 40.6238 0 0
        CHANNELS 3 Zrotation Xrotation Yrotation
        JOINT RightToeBase
        {
          OFFSET 12.7242 0 0
          CHANNELS 3 Zrotation Xrotation Yrotation
          End Site
          {
            OFFSET 0 0 0
          }
        }
      }
    }
  }
  JOINT Spine
  {
    OFFSET 0.165834 0.87714 6.61349
    CHANNELS 3 Zrotation Xrotation Yrotation
    JOINT Spine1
    {
      OFFSET 7.38963 1.71661e-005 0
      CHANNELS 3 Zrotation Xrotation Yrotation
      JOINT Spine2
      {
        OFFSET 11.9445 1.14441e-005 0
        CHANNELS 3 Zrotation Xrotation Yrotation
        JOINT Spine3
        {
          OFFSET 14.7254 4.19617e-005 0
          CHANNELS 3 Zrotation Xrotation Yrotation
          JOINT Spine4
          {
            OFFSET 10.9679 0 0
            CHANNELS 3 Zrotation Xrotation Yrotation
            JOINT RightShoulder
            {
              OFFSET 2.46616 -1.6653 3.69651
              CHANNELS 3 Zrotation Xrotation Yrotation
              JOINT RightArm
              {
                OFFSET 13.0012 0 0
                CHANNELS 3 Zrotation Xrotation Yrotation
                JOINT RightForeArm
                {
                  OFFSET 28.7848 1.62311e-005 0
                  CHANNELS 3 Zrotation Xrotation Yrotation
                  JOINT RightHand
                  {
                    OFFSET 26.5688 1.62095e-005 0
                    CHANNELS 3 Zrotation Xrotation Yrotation
                    End Site
                    {
                      OFFSET 0 0 0
                    }
                  }
                }
              }
            }
            JOINT LeftShoulder
            {
              OFFSET 2.38034 -1.29275 -3.7523
              CHANNELS 3 Zrotation Xrotation Yrotation
              JOINT LeftArm
              {
                OFFSET 16.3182 6.07031e-005 0
                CHANNELS 3 Zrotation Xrotation Yrotation
                JOINT LeftForeArm
                {
                  OFFSET 27.0901 0 0
                  CHANNELS 3 Zrotation Xrotation Yrotation
                  JOINT LeftHand
                  {
                    OFFSET 24.5451 1.51738e-005 0
                    CHANNELS 3 Zrotation Xrotation Yrotation
                    End Site
                    {
                      OFFSET 0 0 0
                    }
                  }
                }
              }
            }
            JOINT Neck
            {
              OFFSET 5.0226 -0.0266342 0
              CHANNELS 3 Zrotation Xrotation Yrotation
              JOINT Head
              {
                OFFSET 6.69364 2.86102e-005 0
                CHANNELS 3 Zrotation Xrotation Yrotation
                End Site
                {
                  OFFSET 0 0 0
                }
              }
            }
          }
        }
      }
    }
  }
}
MOTION
Frames:	7
Frame Time:	0.0416667
0.228444 96.8148 147.872 -149.464 -83.4345 -151.556 -177.882 18.003 83.8994 -7.21631 0.857139 -1.40771 67.2907 4.0562 -2.92126 16.0625 -9.69247 7.39746 172.066 -12.8449 90.0065 -19.6877 -18.6423 -1.14641 78.4647 -11.4477 -3.56886 26.1774 0.0532231 4.15206 1.01892 8.17485 -89.8956 10.5253 2.07748 0.0219764 -1.14397 2.07643 -0.0695262 -23.6915 1.97479 0.645573 -3.67887 1.97479 0.645571 89.8738 -24.8252 -109.177 29.9719 -17.164 -16.058 -16.4474 -13.6806 -30.951 -11.1424 -0.218432 -3.02446 -87.821 -53.7259 82.6337 -25.4328 4.23438 -1.61762 10.1777 -7.20674 -16.225 -2.26459 -0.0905566 -5.30894 -2.17059 -2.05999 3.19935 -1.95509 -2.45442 -1.99426 
0.472138 96.1819 154.867 -141.247 -82.9773 -143.461 -177.598 18.0383 83.6031 -10.5802 1.32587 -1.65249 60.5008 -0.129527 -3.24918 12.6734 -9.88871 4.72834 171.115 -18.07 88.7071 -17.0642 -19.7173 -1.78417 76.4406 -10.95 -4.65173 30.0419 -1.65332 4.74632 1.07877 8.04957 -89.8613 10.7756 2.21214 0.0710159 -0.893432 2.21313 -0.0264661 -23.4425 2.08849 0.732866 -3.42981 2.08849 0.732863 89.6914 -25.2618 -109.367 31.6588 -18.1657 -15.1564 -16.5089 -13.7133 -31.194 -10.8003 -0.205568 -3.09145 -87.6231 -54.4003 83.0277 -25.8818 5.64279 -0.821787 10.0489 -6.92423 -14.6518 -2.33136 -0.0906789 -4.80732 -2.45 -1.70698 3.53965 -2.33652 -2.13298 -2.22675 
0.82668 96.1479 162.831 -135.27 -81.8217 -139.324 -176.683 18.4624 81.4862 -19.6718 3.10748 -2.60604 61.2216 -1.15109 -2.23708 7.54007 -12.2963 4.19129 168.552 -20.6381 84.4574 -19.3371 -21.8972 -2.92157 71.0853 -7.474 -4.51247 37.928 -4.93407 6.10519 1.10906 7.94186 -89.5645 10.9847 2.40967 0.637192 -0.684062 2.43538 0.530456 -23.2324 2.10673 1.3322 -3.2198 2.10674 1.3322 89.399 -26.1415 -109.585 35.4118 -19.7265 -13.1206 -15.272 -14.557 -28.5464 -10.601 -0.120489 -4.09164 -87.5401 -53.913 83.0682 -26.46 6.67899 0.141635 9.524 -8.74626 -10.7481 -2.45769 -0.0904888 -4.86007 -2.71601 -1.55236 2.14382 -3.15951 -1.79367 -1.45609 
1.15805 96.6265 170.35 -138.616 -80.193 -144.78 -175.776 13.6838 79.2959 -23.5034 4.05002 -3.92637 65.9276 1.89732 -1.8277 5.55228 -12.8084 3.36809 166.451 -18.7694 79.7602 -30.0996 -24.9679 -4.73098 64.5421 -2.74519 -2.74538 39.0415 -5.69277 8.51337 0.998145 7.98038 -89.264 10.9004 2.32765 1.24537 -0.768921 2.38019 1.14168 -23.3108 1.84579 1.8874 -3.29816 1.84579 1.88739 89.2156 -26.7237 -109.704 39.7152 -21.8713 -10.0072 -13.4752 -14.3184 -25.6137 -7.8286 -0.00526201 -5.36584 -87.6412 -53.2076 82.8077 -27.043 7.37545 0.810147 9.19235 -10.642 -7.74014 -3.79986 -0.0900187 -4.99652 -3.50041 -1.16568 0.72886 -3.48929 -1.23847 -0.191729 
1.29392 97.0916 176.481 -133.524 -77.9821 -140.593 -175.371 8.36442 78.543 -23.9463 2.04295 -4.55182 69.8113 4.38111 -1.9687 8.74764 -10.7269 2.83352 167.727 -10.3552 77.4341 -47.94 -27.9057 -6.82423 56.6015 2.94277 0.967821 26.5562 -0.56833 6.13205 0.9428 8.05228 -89.1375 10.7528 2.27521 1.5051 -0.916957 2.33924 1.40349 -23.4552 1.71777 2.11928 -3.4426 1.71777 2.11928 88.8175 -27.305 -110.262 41.8352 -21.8404 -7.30063 -13.3626 -15.9498 -24.9603 -10.3259 -0.111286 -4.16365 -87.6693 -52.4349 82.6381 -27.0012 7.91495 -0.303242 9.22451 -10.652 -5.99011 -3.06736 -0.0897304 -4.86906 -3.40752 -0.381649 -0.292669 -3.7037 -0.348231 0.544867 
1.18419 97.5109 181.223 -128.206 -76.2133 -134.996 -175.827 4.22605 78.1542 -22.6207 0.682147 -4.12635 72.3276 5.84631 -1.36481 8.79963 -11.0459 3.35301 172.19 -1.0161 79.0774 -61.4349 -27.6705 -8.14516 58.6492 1.70458 0.2449 24.8196 0.297684 5.2888 0.76215 8.09948 -89.2254 10.6624 1.87449 1.36915 -1.00784 1.93294 1.28531 -23.5438 1.37641 1.86917 -3.53111 1.37642 1.86916 87.9518 -26.8358 -112.252 43.4142 -19.9697 -4.09539 -13.3666 -13.9761 -25.7876 -11.2169 -0.156446 -3.69988 -88.4029 -52.6805 81.6105 -25.7067 8.7632 -2.14035 9.16959 -10.095 -6.09957 -2.23289 -0.0900905 -4.01193 -3.20476 0.975657 0.502613 -3.53386 0.913059 0.216577 
0.592188 98.036 185.716 -131.284 -76.1621 -135.173 -175.725 0.239613 80.348 -21.9405 2.16592 -2.71883 74.3725 7.25861 -0.499335 10.2881 -10.7509 4.1036 175.496 4.959 84.1155 -61.781 -20.4301 -6.62676 66.703 -3.56416 -1.18546 26.8211 -0.391724 4.86441 0.416149 8.22411 -89.5617 10.4222 1.02992 0.780363 -1.24854 1.06326 0.734265 -23.7838 0.74778 1.0538 -3.77115 0.747776 1.0538 89.5863 -27.8855 -108.439 42.1219 -20.6978 -4.61679 -13.8032 -15.3584 -26.1423 -11.0658 -0.177472 -3.45289 -88.1373 -51.4491 81.7804 -22.9429 13.7304 -7.45154 8.08992 -10.3766 -5.1808 -1.28537 -0.0835547 -4.36113 -3.2115 1.75037 -1.65269 -3.05345 1.92838 1.82337 
